<svg width="85" height="22" viewBox="0 0 85 22" fill="none" xmlns="http://www.w3.org/2000/svg">
<path d="M40.392 21.6873C39.181 21.6873 38.1818 21.5027 37.3944 21.1388C36.607 20.775 36.0205 20.1994 35.635 19.4119C35.2494 18.6245 35.0593 17.609 35.0593 16.36V0.312988H40.0445V15.5237C40.0445 15.9256 40.1042 16.2514 40.2291 16.5012C40.354 16.751 40.5441 16.9356 40.8047 17.0497C41.0654 17.1637 41.3641 17.2235 41.7116 17.2235H48.1956V21.6873H40.3866H40.392Z" fill="white"/>
<path d="M66.6972 3.32152C62.456 -0.919673 55.581 -0.919673 51.3398 3.32152C47.0986 7.56272 47.0986 14.4377 51.3398 18.6789C55.581 22.9201 62.456 22.9201 66.6972 18.6789C70.9384 14.4377 70.9384 7.56272 66.6972 3.32152ZM63.4932 15.4803C61.0224 17.9512 57.0092 17.9512 54.5384 15.4803C52.0675 13.0095 52.0675 8.99636 54.5384 6.5255C57.0092 4.05463 61.0224 4.05463 63.4932 6.5255C65.9641 8.99636 65.9641 13.0095 63.4932 15.4803Z" fill="white"/>
<path d="M25.6483 21.6873C24.4373 21.6873 23.4381 21.5027 22.6507 21.1388C21.8632 20.775 21.2767 20.1994 20.8912 19.4119C20.5056 18.6245 20.3156 17.609 20.3156 16.36V0.312988H25.3007V15.5237C25.3007 15.9256 25.3605 16.2514 25.4854 16.5012C25.6103 16.751 25.8003 16.9356 26.061 17.0497C26.3216 17.1637 26.6203 17.2235 26.9679 17.2235H33.4518V21.6873H25.6428H25.6483Z" fill="white"/>
<path d="M78.6063 21.6873H70.6832V17.2235H78.3945C79.4969 17.2235 80.3929 16.5392 80.3929 15.4423C80.3929 14.4105 78.7583 13.7643 76.6893 13.1398C75.0982 12.6619 70.8733 11.3911 70.8733 6.77524C70.8733 3.21286 73.4853 0.312988 77.3355 0.312988H83.9933L82.8258 4.77683H77.3355C76.2332 4.77683 75.3371 5.46107 75.3371 6.55803C75.3371 7.58981 75.9073 8.23604 77.9763 8.86054C79.5675 9.33842 84.8568 10.6092 84.8568 15.225C84.8568 19.0698 82.1741 21.6873 78.6117 21.6873" fill="white"/>
<path d="M0.157715 21.6873C1.2601 17.4027 5.14831 14.2313 9.7805 14.2313C13.5112 14.2313 15.8463 16.2949 15.8463 16.2949C15.8463 16.2949 14.353 14.4865 12.1047 13.395L9.80222 4.5759L7.54858 13.1778C5.26778 13.4873 3.28023 14.4756 2.0258 15.5183L6.10951 2.13219C6.44076 1.05153 7.43454 0.312988 8.56408 0.312988H10.9861C12.1156 0.312988 13.1148 1.05153 13.4406 2.13219L19.1155 20.7696C19.2241 21.0682 19.3218 21.3778 19.4033 21.6927H14.2661L14.2552 21.6547C13.3755 20.0907 11.6975 19.0372 9.7805 19.0372C7.86355 19.0372 6.22355 20.069 5.33295 21.6004L5.31123 21.6927H0.157715V21.6873Z" fill="white"/>
</svg>
