<svg width="99" height="30" viewBox="0 0 99 30" fill="none" xmlns="http://www.w3.org/2000/svg">
<path d="M46.7181 14.3755C49.303 15.7573 50.0996 18.7974 49.5306 23.577C49.4818 23.9346 49.1729 24.211 48.8153 24.211H45.6126C45.1737 24.211 44.8485 23.8371 44.8973 23.3981C45.5801 17.5781 44.8323 15.5135 41.4833 15.5135H35.9884L34.5904 23.6095C34.5253 23.9509 34.2327 24.211 33.875 24.211H30.5911C30.1359 24.211 29.7945 23.8046 29.8758 23.3656L33.68 1.84126C33.745 1.49986 34.0376 1.23975 34.3953 1.23975H44.7185C49.3518 1.23975 51.9366 3.23937 51.9366 7.17358C51.9366 10.7014 49.937 13.2212 46.7181 14.3755ZM47.0758 7.74258C47.0758 6.00307 46.0841 5.01139 44.0519 5.01139H38.3945C38.0369 5.01139 37.7442 5.2715 37.6792 5.6129L36.5737 12.0019H42.345C45.2712 12.0182 47.0758 10.1486 47.0758 7.74258Z" fill="white"/>
<path d="M71.4451 8.66902L68.8115 23.6255C68.7464 23.9669 68.4538 24.227 68.0962 24.227H65.1049C64.6496 24.227 64.3082 23.8206 64.3895 23.3817L64.6334 21.9348C63.154 23.6418 61.1544 24.731 58.7646 24.731C54.8629 24.731 52.2617 21.8373 52.2617 17.4153C52.2617 12.0017 56.0659 7.33594 61.2194 7.33594C63.9018 7.33594 65.7551 8.62025 66.633 10.7824L67.0232 8.44142C67.0882 8.08376 67.3808 7.8399 67.7385 7.8399H70.7298C71.185 7.8074 71.5264 8.21382 71.4451 8.66902ZM65.8527 15.0255C65.8527 12.6032 64.4383 11.1238 62.1785 11.1238C58.9922 11.1238 56.8625 13.9851 56.8625 16.9276C56.8625 19.3499 58.3094 20.8943 60.6016 20.8943C63.723 20.9106 65.8527 18.0494 65.8527 15.0255Z" fill="white"/>
<path d="M74.7291 7.80762H77.7204C78.1756 7.80762 78.517 8.21405 78.4357 8.65298L75.8021 23.6095C75.7371 23.9509 75.4444 24.211 75.0868 24.211H72.0955C71.6403 24.211 71.2989 23.8046 71.3802 23.3657L74.0138 8.40913C74.0789 8.06773 74.3715 7.80762 74.7291 7.80762Z" fill="white"/>
<path d="M98.0906 8.66902L95.4569 23.6255C95.3919 23.9669 95.0992 24.227 94.7416 24.227H91.7503C91.2951 24.227 90.9537 23.8206 91.035 23.3817L91.2788 21.9348C89.7994 23.6418 87.7998 24.731 85.41 24.731C81.5084 24.731 78.9072 21.8373 78.9072 17.4153C78.9072 12.0017 82.7114 7.33594 87.8649 7.33594C90.5473 7.33594 92.4006 8.62025 93.2784 10.7824L93.6686 8.44142C93.7336 8.08376 94.0263 7.8399 94.3839 7.8399H97.3752C97.8304 7.8074 98.1719 8.21382 98.0906 8.66902ZM92.4981 15.0255C92.4981 12.6032 91.0837 11.1238 88.824 11.1238C85.6376 11.1238 83.5079 13.9851 83.5079 16.9276C83.5079 19.3499 84.9548 20.8943 87.2471 20.8943C90.3684 20.9106 92.4981 18.0494 92.4981 15.0255Z" fill="white"/>
<path d="M12.7992 29.3587C12.6273 29.3587 12.4599 29.3223 12.3019 29.2505L0.791826 24.1133C0.7674 24.097 0.742776 24.0847 0.71897 24.0728C0.694915 24.0608 0.669994 24.0483 0.645519 24.0319C0.629417 24.0239 0.613017 24.0116 0.597138 23.9998C0.580714 23.9875 0.564215 23.9751 0.547915 23.9669C0.369997 23.8294 0.231568 23.6474 0.147613 23.4406C0.0617016 23.229 0.0371024 23.0007 0.0764909 22.7802L3.66937 2.28004C3.71671 2.0746 3.81228 1.87783 3.94578 1.71103C4.1839 1.42176 4.53346 1.25586 4.90485 1.25586H27.6811C28.0364 1.25586 28.3754 1.41324 28.6112 1.6877C28.8494 1.96483 28.9547 2.32881 28.9003 2.68636L25.2749 23.2191C25.1615 23.8032 24.6555 24.2271 24.072 24.2271H14.7241L13.9925 28.3563C13.9449 28.6424 13.7948 28.9007 13.57 29.0837C13.3522 29.261 13.0785 29.3587 12.7992 29.3587ZM8.13999 10.0996C7.89516 10.0996 7.64763 10.1949 7.44299 10.3679C7.23703 10.542 7.09773 10.7758 7.05084 11.0262L6.44936 14.4728C6.40831 14.727 6.46811 14.9638 6.61776 15.1396C6.76045 15.3071 6.97198 15.3994 7.21337 15.3994H11.3589L10.8224 18.4233L10.6273 19.5451C10.5798 19.7906 10.6338 20.0229 10.7794 20.1993C10.9243 20.3749 11.1416 20.4717 11.3914 20.4717H14.8379C15.0827 20.4717 15.3303 20.3764 15.5349 20.2034C15.7409 20.0293 15.8802 19.7955 15.9271 19.5451L16.6587 15.3994H20.8043C21.047 15.3994 21.2945 15.302 21.5013 15.1251C21.7068 14.9492 21.8461 14.7176 21.8935 14.4728L22.495 11.0262C22.5348 10.7796 22.4723 10.5379 22.3235 10.3632C22.1788 10.1932 21.9683 10.0996 21.7309 10.0996H17.5854L18.317 5.93789C18.3645 5.69227 18.3105 5.4599 18.1649 5.28352C18.02 5.10788 17.8026 5.01115 17.5528 5.01115H14.1064C13.8615 5.01115 13.614 5.10642 13.4094 5.27941C13.2034 5.45351 13.0641 5.68737 13.0171 5.93789L12.2855 10.0996H8.13999Z" fill="white"/>
<path d="M74.6477 3.35335C74.6477 1.80892 75.867 0.557129 77.4439 0.557129C78.8583 0.557129 79.8012 1.58133 79.8012 2.91441C79.8012 4.49134 78.5819 5.74314 77.0375 5.74314C75.6231 5.74314 74.6477 4.7352 74.6477 3.35335Z" fill="white"/>
</svg>
