<svg width="39" height="38" viewBox="0 0 39 38" fill="none" xmlns="http://www.w3.org/2000/svg">
<ellipse cx="19.5" cy="19" rx="19.5" ry="19" fill="#0047AB"/>
<path d="M19.3403 10.1499C21.733 10.1499 24.0291 11.1004 25.7212 12.7925C27.4131 14.4846 28.3647 16.7805 28.3647 19.1733C28.3647 21.5661 27.4135 23.8621 25.7212 25.5542C24.029 27.2462 21.7332 28.1978 19.3403 28.1978C16.9476 28.1977 14.6515 27.2464 12.9595 25.5542C11.2676 23.862 10.3169 21.5661 10.3169 19.1733V19.1714L10.3286 18.7241C10.4435 16.4964 11.3795 14.3829 12.9634 12.7974L12.9644 12.7964C14.6558 11.1068 16.9477 10.1548 19.3384 10.1499H19.3403ZM19.3403 14.4429C19.2595 14.443 19.194 14.5075 19.1938 14.5884V15.8882L18.3315 16.0073C17.5136 16.1207 16.9037 16.8206 16.9019 17.647C16.9115 18.5699 17.6587 19.3144 18.5825 19.3198H20.104C20.8684 19.3198 21.4868 19.9383 21.4868 20.7026C21.4867 21.4679 20.8658 22.0835 20.104 22.0835H17.0483C16.9681 22.0835 16.9019 22.1496 16.9019 22.23C16.902 22.3109 16.9674 22.3765 17.0483 22.3765H19.1938V23.7583C19.1938 23.8393 19.2594 23.9047 19.3403 23.9048C19.4214 23.9048 19.4868 23.8393 19.4868 23.7583V22.4595L20.3491 22.3394C21.1643 22.2263 21.773 21.5312 21.7788 20.7085L21.77 20.5366C21.6859 19.7473 21.0594 19.1208 20.27 19.0366L20.0981 19.0278H18.5767C17.8602 19.0277 17.2725 18.4841 17.2017 17.7866L17.1938 17.645L17.2017 17.5034C17.2725 16.8051 17.8624 16.2643 18.5767 16.2642H21.6333C21.7133 16.264 21.7787 16.1979 21.7788 16.1177C21.7788 16.0368 21.7142 15.9714 21.6333 15.9712H19.4868V14.5884C19.4867 14.5075 19.4213 14.4429 19.3403 14.4429Z" stroke="white" stroke-width="2"/>
</svg>
