<svg width="39" height="39" viewBox="0 0 39 39" fill="none" xmlns="http://www.w3.org/2000/svg">
<circle cx="19.5" cy="19.5" r="19.5" fill="#0047AB"/>
<mask id="mask0_73_393" style="mask-type:alpha" maskUnits="userSpaceOnUse" x="8" y="8" width="23" height="23">
<rect x="8.46655" y="8.50171" width="22.0667" height="21.9964" fill="white"/>
</mask>
<g mask="url(#mask0_73_393)">
<path d="M14.5979 24.4638C8.43029 22.9178 6.31458 15.036 11.0549 10.6586C15.5799 6.47993 22.8143 8.69548 24.4151 14.532C30.0471 15.9922 32.4623 22.8314 28.7673 27.4543C24.5918 32.6785 16.2729 30.8513 14.5979 24.4638ZM29.0433 22.758C29.2439 19.8669 27.3722 17.0873 24.6444 16.1593C24.6267 16.5002 24.6666 16.8521 24.646 17.1921C24.6321 17.4221 24.4659 18.1728 24.5302 18.3121L28.9057 22.6898L29.0433 22.758ZM23.9573 19.8712C23.6845 20.6192 23.1794 21.2394 22.7392 21.8876L27.5083 26.6528C27.7808 26.3244 28.0371 25.9757 28.2425 25.6006C28.3488 25.4065 28.7304 24.6664 28.6548 24.5012L23.9573 19.8712ZM19.6948 24.042L24.3246 28.7405C25.092 28.562 25.8092 28.1611 26.4313 27.6832L21.6818 22.899C21.0547 23.3314 20.4286 23.8056 19.6948 24.042ZM22.536 29.0362L18.0896 24.5673C17.4674 24.667 16.8439 24.7075 16.212 24.6833C17.124 27.291 19.7646 29.103 22.536 29.0362Z" fill="white"/>
</g>
</svg>
