<svg width="39" height="39" viewBox="0 0 39 39" fill="none" xmlns="http://www.w3.org/2000/svg">
<circle cx="19.5" cy="19.5" r="19.5" fill="#0047AB"/>
<path d="M19.3219 29.7451C18.771 29.7451 18.2201 29.5132 17.8142 29.1362L16.7414 28.0634C16.6544 27.9765 16.5095 27.9185 16.3935 27.9475L14.8858 28.1794C13.726 28.3534 12.6532 27.5705 12.4792 26.4398L12.2473 24.932C12.2183 24.8161 12.1603 24.7001 12.0443 24.6421L10.7106 23.9462C9.69578 23.4243 9.28985 22.1486 9.78276 21.1338L10.4786 19.771C10.5366 19.6551 10.5366 19.5391 10.4786 19.4231L9.78276 18.0604C9.26086 17.0166 9.66678 15.7698 10.7106 15.2479L12.0733 14.552C12.1603 14.4941 12.2473 14.4071 12.2473 14.2911L12.4792 12.7834C12.6532 11.6236 13.755 10.8408 14.8858 11.0437L16.3935 11.2757C16.5095 11.3047 16.6544 11.2467 16.7414 11.1597L17.7852 10.0869C18.5971 9.27507 19.9308 9.27507 20.7426 10.0869L21.8154 11.1597C21.9024 11.2467 22.0474 11.3047 22.1634 11.2757L23.6711 11.0437C24.8309 10.8698 25.9037 11.6526 26.0776 12.7834L26.3096 14.2911C26.3386 14.4071 26.3966 14.5231 26.5125 14.581L27.8753 15.2769C28.8901 15.8278 29.296 17.0746 28.7741 18.0894L28.0782 19.4521C28.0203 19.5681 28.0203 19.6841 28.0782 19.8L28.7741 21.1628C29.296 22.2066 28.8901 23.4533 27.8463 24.0042L26.4835 24.7001C26.3676 24.7581 26.3096 24.8741 26.2806 24.99L26.0486 26.4977C25.8747 27.6575 24.7729 28.4404 23.6421 28.2374L22.1344 28.0055C22.0184 27.9765 21.8734 28.0344 21.7864 28.1214L20.7137 29.1942C20.3657 29.5132 19.8438 29.7451 19.3219 29.7451ZM16.4805 26.2078C17.0314 26.2078 17.5823 26.4398 17.9592 26.8167L19.032 27.8895C19.177 28.0344 19.4089 28.0344 19.5829 27.8895L20.6557 26.8167C21.1196 26.3528 21.8154 26.1208 22.4823 26.2368L23.99 26.4687C24.193 26.4977 24.3959 26.3528 24.4249 26.1498L24.6569 24.6421C24.7729 23.9752 25.1788 23.3953 25.7877 23.1054L27.1504 22.4095C27.3244 22.3225 27.4114 22.0906 27.3244 21.9166L26.6285 20.5539C26.3386 19.945 26.3386 19.2491 26.6285 18.6403L27.3244 17.2775C27.4114 17.1036 27.3534 16.8716 27.1504 16.7556L25.7877 16.0598C25.1788 15.7408 24.7729 15.1899 24.6569 14.5231L24.4249 13.0153C24.3959 12.8124 24.193 12.6674 23.99 12.6964L22.4823 12.9284C21.8154 13.0443 21.1486 12.8124 20.6557 12.3485L19.5829 11.2757C19.4379 11.1307 19.2059 11.1307 19.032 11.2757L17.9592 12.3485C17.4953 12.8124 16.7994 13.0443 16.1325 12.9284L14.6248 12.6964C14.4219 12.6674 14.2189 12.8124 14.1899 13.0153L13.958 14.5231C13.842 15.1899 13.4361 15.7698 12.8272 16.0598L11.4644 16.7556C11.2905 16.8426 11.2035 17.0746 11.2905 17.2775L11.9863 18.6403C12.2763 19.2491 12.2763 19.945 11.9863 20.5539L11.2905 21.9166C11.2035 22.0906 11.2615 22.3225 11.4644 22.4385L12.8272 23.1344C13.4361 23.4533 13.842 24.0042 13.958 24.6711L14.1899 26.1788C14.2189 26.3818 14.4219 26.5267 14.6248 26.4977L16.1325 26.2658C16.2485 26.2368 16.3645 26.2078 16.4805 26.2078Z" fill="white"/>
<path fill-rule="evenodd" clip-rule="evenodd" d="M22.3954 16.2049L18.1042 21.0179L16.1036 19.2203C15.5817 18.7854 14.9438 18.7854 14.5379 19.2203C14.132 19.6552 14.248 20.2931 14.6249 20.699L17.4663 23.2215C17.9013 23.6564 18.5391 23.5115 18.945 23.1345L23.9901 17.4516C24.425 17.0167 24.28 16.3788 23.9031 15.9729C23.4682 15.654 22.8303 15.654 22.3954 16.2049Z" fill="white"/>
</svg>
