<svg width="30" height="36" viewBox="0 0 30 36" fill="none" xmlns="http://www.w3.org/2000/svg">
<path d="M27.6714 5.3558C26.6583 3.61872 25.2347 2.29165 23.4011 1.37509C21.5675 0.458038 19.3965 0.000244141 16.8872 0.000244141H7.23744H2.50885H0V32.3266L14.9614 35.7355V34.0715L14.9634 34.072V16.2356L14.941 12.7619C14.8376 11.1545 14.3701 9.93277 13.5398 9.09713C12.5906 8.14352 11.1031 7.43708 9.0769 6.97929L7.23744 6.56391H16.1154C18.1421 6.56391 19.6291 6.93443 20.5788 7.67353C21.4929 8.38777 21.9629 9.67486 21.9956 11.5246H22.0019V22.6125C22.488 22.4434 22.955 22.2493 23.4011 22.026C25.2347 21.1095 26.6583 19.7751 27.6714 18.0214C28.6845 16.2678 29.1911 14.1538 29.1911 11.6767C29.1911 9.2 28.6845 7.09288 27.6714 5.3558Z" fill="#0047AB"/>
</svg>
