<svg width="354" height="36" viewBox="0 0 354 36" fill="none" xmlns="http://www.w3.org/2000/svg">
<mask id="mask0_9_316" style="mask-type:alpha" maskUnits="userSpaceOnUse" x="0" y="0" width="354" height="36">
<rect width="353.241" height="35.7357" fill="#D9D9D9"/>
</mask>
<g mask="url(#mask0_9_316)">
<path d="M58.721 7.63994C57.4052 6.97104 55.8402 6.6366 54.0261 6.6366H47.8007H43.548H41.4048V29.4298H47.8007V23.6803H54.0261C55.8402 23.6803 57.4052 23.3458 58.721 22.6765C60.0359 22.008 61.0514 21.0325 61.7656 19.7508C62.4799 18.47 62.8372 16.9333 62.8372 15.1411C62.8372 13.3275 62.4799 11.7903 61.7656 10.5315C61.0514 9.27269 60.0359 8.30933 58.721 7.63994ZM55.7441 17.4208C55.2561 17.7607 54.4453 17.9308 53.3118 17.9308H47.8007V12.3856H53.3118C54.4453 12.3856 55.2561 12.5557 55.7441 12.896C56.2317 13.2363 56.4754 13.9847 56.4754 15.1411C56.4754 16.321 56.2317 17.0805 55.7441 17.4208Z" fill="#0047AB"/>
<path d="M83.4024 7.7418C81.5088 6.77844 79.2013 6.29626 76.4794 6.29626C73.8487 6.29626 71.586 6.77844 69.693 7.7418C67.7989 8.70614 66.3529 10.0668 65.3554 11.8239C64.3569 13.5825 63.8582 15.6515 63.8582 18.0331C63.8582 20.4148 64.3569 22.4843 65.3554 24.2414C66.3529 25.9994 67.7989 27.3606 69.693 28.324C71.586 29.2883 73.8487 29.77 76.4794 29.77C79.2013 29.77 81.5088 29.2883 83.4024 28.324C85.296 27.3606 86.7415 25.9994 87.7405 24.2414C88.7384 22.4843 89.2372 20.4148 89.2372 18.0331C89.2372 15.6515 88.7384 13.5825 87.7405 11.8239C86.7415 10.0668 85.296 8.70614 83.4024 7.7418ZM81.9057 21.5029C81.5537 22.3195 80.9472 22.8807 80.0862 23.1869C79.2238 23.493 78.0215 23.6461 76.4794 23.6461C74.9369 23.6461 73.7463 23.493 72.9077 23.1869C72.0682 22.8807 71.4841 22.3195 71.1555 21.5029C70.8265 20.6863 70.6622 19.5299 70.6622 18.0331C70.6622 16.514 70.8265 15.3512 71.1555 14.5458C71.4841 13.7409 72.0682 13.1851 72.9077 12.8789C73.7463 12.5728 74.9369 12.4197 76.4794 12.4197C78.0215 12.4197 79.2238 12.5728 80.0862 12.8789C80.9472 13.1851 81.5537 13.7409 81.9057 14.5458C82.2572 15.3512 82.4332 16.514 82.4332 18.0331C82.4332 19.5299 82.2572 20.6863 81.9057 21.5029Z" fill="#0047AB"/>
<path d="M109.801 21.5537C109.291 20.9759 108.446 20.5391 107.267 20.2441V19.9043C108.718 19.7225 109.897 19.3656 110.805 18.8322C111.712 18.2999 112.375 17.5964 112.795 16.7232C113.215 15.8505 113.425 14.8125 113.425 13.6103C113.425 12.1135 113.079 10.8494 112.387 9.81727C111.695 8.78516 110.669 7.9973 109.308 7.45224C107.947 6.90815 106.258 6.6366 104.239 6.6366H90.9377V29.4298H97.3332V21.6726H99.9527C100.792 21.6726 101.449 21.7355 101.926 21.8598C102.402 21.9851 102.787 22.206 103.083 22.5239C103.377 22.8412 103.661 23.2834 103.933 23.8499L106.655 29.4298H114.037L111.213 23.7144C110.782 22.8525 110.312 22.1324 109.801 21.5537ZM106.144 16.5018C105.758 16.7744 105.101 16.9104 104.171 16.9104H97.3332V12.3856H104.171C105.101 12.3856 105.758 12.5333 106.144 12.8278C106.53 13.1227 106.723 13.7244 106.723 14.6307C106.723 15.6062 106.53 16.2298 106.144 16.5018Z" fill="#0047AB"/>
<path d="M122.61 6.63635H114.547V12.3853H122.61V29.4295H129.006V12.3853H137.034V6.63635H129.006H122.61Z" fill="#0047AB"/>
<path d="M143.136 6.63611L133.304 29.4293H140.482L142.248 25.2111H153.072L154.805 29.4293H162.153L152.287 6.63611H143.136ZM144.655 19.4617L145.994 16.2634L147.456 12.4197H147.899L149.396 16.2634L150.71 19.4617H144.655Z" fill="#0047AB"/>
<path d="M169.229 6.63635H162.833V29.4295H164.602H169.229H182.395V23.68H169.229V6.63635Z" fill="#0047AB"/>
<path d="M208.76 7.97975C206.923 7.08415 204.746 6.63611 202.228 6.63611H197.091H192.294H190.696V29.4293H192.294H197.091H202.228C204.746 29.4293 206.923 28.9817 208.76 28.0856C210.597 27.1895 212.014 25.8912 213.013 24.1902C214.01 22.4892 214.509 20.4372 214.509 18.0327C214.509 15.6287 214.01 13.5757 213.013 11.8751C212.014 10.1741 210.597 8.87584 208.76 7.97975ZM207.161 21.7916C206.821 22.597 206.254 23.1133 205.46 23.34C204.666 23.5667 203.589 23.6798 202.228 23.6798H197.091V12.3851H202.228C203.589 12.3851 204.666 12.4987 205.46 12.7254C206.254 12.9526 206.821 13.4626 207.161 14.2563C207.501 15.0505 207.671 16.3093 207.671 18.0327C207.671 19.7337 207.501 20.9871 207.161 21.7916Z" fill="#0047AB"/>
<path d="M224.68 6.63611L214.848 29.4293H222.026L223.792 25.2111H234.616L236.349 29.4293H243.697L233.831 6.63611H224.68ZM226.199 19.4617L227.538 16.2634L229 12.4197H229.443L230.94 16.2634L232.254 19.4617H226.199Z" fill="#0047AB"/>
<path d="M269.807 7.7418C267.913 6.77844 265.605 6.29626 262.884 6.29626C260.253 6.29626 257.99 6.77844 256.097 7.7418C254.203 8.70614 252.757 10.0668 251.759 11.8239C250.761 13.5825 250.262 15.6515 250.262 18.0331C250.262 20.4148 250.761 22.4843 251.759 24.2414C252.757 25.9994 254.203 27.3606 256.097 28.324C257.99 29.2883 260.253 29.77 262.884 29.77C265.605 29.77 267.913 29.2883 269.807 28.324C271.7 27.3606 273.146 25.9994 274.145 24.2414C275.143 22.4843 275.641 20.4148 275.641 18.0331C275.641 15.6515 275.143 13.5825 274.145 11.8239C273.146 10.0668 271.7 8.70614 269.807 7.7418ZM268.31 21.5029C267.958 22.3195 267.352 22.8807 266.49 23.1869C265.628 23.493 264.426 23.6461 262.884 23.6461C261.341 23.6461 260.151 23.493 259.312 23.1869C258.472 22.8807 257.888 22.3195 257.56 21.5029C257.231 20.6863 257.067 19.5299 257.067 18.0331C257.067 16.514 257.231 15.3512 257.56 14.5458C257.888 13.7409 258.472 13.1851 259.312 12.8789C260.151 12.5728 261.341 12.4197 262.884 12.4197C264.426 12.4197 265.628 12.5728 266.49 12.8789C267.352 13.1851 267.958 13.7409 268.31 14.5458C268.662 15.3512 268.837 16.514 268.837 18.0331C268.837 19.5299 268.662 20.6863 268.31 21.5029Z" fill="#0047AB"/>
<path d="M298.622 19.2574C297.521 18.2828 295.827 17.7494 293.536 17.6583V17.318C295.622 17.2278 297.091 16.7056 297.942 15.753C298.792 14.8008 299.217 13.5986 299.217 12.1472C299.217 10.9454 298.945 9.93622 298.401 9.1196C297.857 8.30299 297.04 7.68528 295.951 7.26503C294.863 6.84624 293.49 6.63611 291.835 6.63611H277.343V29.4293H292.618C294.431 29.4293 295.9 29.1689 297.023 28.6473C298.146 28.1251 298.967 27.3885 299.489 26.4353C300.011 25.4827 300.272 24.3721 300.272 23.1016C300.272 21.5147 299.722 20.2329 298.622 19.2574ZM283.704 12.3851H290.984C291.642 12.3851 292.113 12.4987 292.396 12.7254C292.68 12.9526 292.821 13.327 292.821 13.8482C292.821 14.3699 292.707 14.7384 292.481 14.9539C292.255 15.1694 291.812 15.2772 291.155 15.2772H283.704V12.3851ZM293.383 23.3566C293.099 23.5725 292.572 23.6798 291.801 23.6798H283.704V20.5162H291.801C292.595 20.5162 293.128 20.6181 293.4 20.8224C293.672 21.0266 293.808 21.4464 293.808 22.0812C293.808 22.7164 293.666 23.1416 293.383 23.3566Z" fill="#0047AB"/>
<path d="M345.892 29.4293H353.24L343.375 6.63611H334.224L324.55 29.0617L321.908 23.7144C321.477 22.8525 321.007 22.1324 320.496 21.5537C319.986 20.9754 319.141 20.5391 317.962 20.2437V19.9038C319.413 19.7225 320.593 19.3656 321.5 18.8322C322.407 18.2994 323.07 17.5963 323.49 16.7232C323.909 15.8505 324.12 14.8125 324.12 13.6103C324.12 12.1135 323.773 10.8494 323.082 9.81726C322.39 8.78516 321.364 7.99681 320.003 7.45224C318.643 6.90815 316.953 6.63611 314.934 6.63611H301.633V29.4293H308.028V21.6726H310.648C311.487 21.6726 312.145 21.7355 312.621 21.8598C313.097 21.9851 313.483 22.206 313.778 22.5234C314.072 22.8412 314.356 23.2834 314.628 23.8499L317.35 29.4293H324.392H324.732H331.57L333.335 25.2111H344.159L345.892 29.4293ZM316.839 16.5018C316.453 16.7739 315.796 16.9104 314.866 16.9104H308.028V12.3851H314.866C315.796 12.3851 316.453 12.5333 316.839 12.8278C317.224 13.1227 317.417 13.7239 317.417 14.6307C317.417 15.6062 317.224 16.2298 316.839 16.5018ZM335.742 19.4617L337.081 16.2634L338.544 12.4197H338.986L340.483 16.2634L341.797 19.4617H335.742Z" fill="#0047AB"/>
<path d="M27.6714 5.3558C26.6583 3.61872 25.2347 2.29165 23.4011 1.37509C21.5675 0.458038 19.3965 0.000244141 16.8872 0.000244141H7.23744H2.50885H0V32.3266L14.9614 35.7355V34.0715L14.9634 34.072V16.2356L14.941 12.7619C14.8376 11.1545 14.3701 9.93277 13.5398 9.09713C12.5906 8.14352 11.1031 7.43708 9.0769 6.97929L7.23744 6.56391H16.1154C18.1421 6.56391 19.6291 6.93443 20.5788 7.67353C21.4929 8.38777 21.9629 9.67486 21.9956 11.5246H22.0019V22.6125C22.488 22.4434 22.955 22.2493 23.4011 22.026C25.2347 21.1095 26.6583 19.7751 27.6714 18.0214C28.6845 16.2678 29.1911 14.1538 29.1911 11.6767C29.1911 9.2 28.6845 7.09288 27.6714 5.3558Z" fill="#0047AB"/>
</g>
</svg>
