<svg width="37" height="45" viewBox="0 0 37 45" fill="none" xmlns="http://www.w3.org/2000/svg">
<path d="M32.6641 14.2003L33.7257 9.19959L28.8646 7.63511L27.3002 2.74613L22.2994 3.83567L18.5 0.399414L14.7006 3.83567L9.69983 2.74613L8.13535 7.60717L3.24637 9.19959L4.30798 14.2003L0.899658 17.9998L4.33592 21.7992L3.24637 26.7999L8.10742 28.3644L9.67189 33.2255L14.6726 32.1638L18.5 35.6001L22.2994 32.1638L27.3002 33.2255L28.8646 28.3644L33.7257 26.7999L32.6641 21.7992L36.1003 17.9998L32.6641 14.2003ZM31.2393 25.3472L27.1605 26.6602L25.8474 30.7391L21.6569 29.8451L18.5 32.6946L15.3431 29.8171L11.1526 30.7111L9.83951 26.6602L5.76071 25.3472L6.65469 21.1566L3.80511 17.9998L6.68263 14.8429L5.78864 10.6523L9.83951 9.33927L11.1526 5.26046L15.3431 6.15445L18.5 3.30487L21.6569 6.18238L25.8474 5.2884L27.1605 9.33927L31.2393 10.6523L30.3453 14.8429L33.1949 17.9998L30.3174 21.1566L31.2393 25.3472Z" fill="white"/>
<path d="M11.1423 31.0361V44.0544L18.5103 38.9861L26.5134 44.0544V31.0361L24.9114 31.856L22.2039 31.0361L18.5103 34.1438L15.1245 31.0361H11.1423Z" fill="white"/>
<path d="M24.5357 16.381L24.9881 14.25L22.9167 13.5833L22.25 11.5L20.119 11.9643L18.5 10.5L16.881 11.9643L14.75 11.5L14.0833 13.5714L12 14.25L12.4524 16.381L11 18L12.4643 19.619L12 21.75L14.0714 22.4167L14.7381 24.4881L16.869 24.0357L18.5 25.5L20.119 24.0357L22.25 24.4881L22.9167 22.4167L24.9881 21.75L24.5357 19.619L26 18L24.5357 16.381Z" fill="white"/>
</svg>
