<svg width="142" height="23" viewBox="0 0 142 23" fill="none" xmlns="http://www.w3.org/2000/svg">
<path d="M13.2079 0.2513C12.7777 -0.20716 12.2417 -0.016723 12.2699 0.547535L12.5873 6.19717C12.7213 8.7716 14.1954 10.2669 16.7628 10.4009L22.4195 10.7183C22.9837 10.7465 23.1459 10.2387 22.7157 9.78021L13.2079 0.2513Z" fill="white"/>
<path d="M22.4265 11.7689L16.7699 12.0863C14.1954 12.2203 12.7284 13.7227 12.5943 16.29L12.2769 21.9397C12.2487 22.5039 12.7848 22.6873 13.215 22.2359L22.7228 12.6999C23.153 12.2415 22.9908 11.7337 22.4265 11.7619" fill="white"/>
<path d="M10.6335 16.2976C10.4995 13.7232 9.0254 12.2279 6.45802 12.0939L0.801331 11.7765C0.237073 11.7482 0.0748484 12.2843 0.505095 12.7145L10.0128 22.2505C10.4431 22.709 10.9791 22.5185 10.9509 21.9543L10.6335 16.2976Z" fill="white"/>
<path d="M10.0199 0.251571L0.512175 9.78753C0.0819285 10.2178 0.244153 10.7538 0.808411 10.7256L6.4651 10.4082C9.03953 10.2742 10.5137 8.77187 10.6406 6.20449L10.958 0.554859C10.9862 -0.00939882 10.4502 -0.199836 10.0199 0.258624" fill="white"/>
<path d="M68.9426 14.6047C68.0962 15.4934 67.0664 15.9307 65.8039 15.9307C64.5414 15.9307 63.4834 15.4864 62.644 14.6047C61.8259 13.7442 61.4027 12.6087 61.4027 11.2474C61.4027 9.88611 61.8259 8.75759 62.644 7.8971C63.4834 7.01544 64.5414 6.57109 65.8039 6.57109C67.0664 6.57109 68.0891 7.00134 68.9426 7.8971C69.7819 8.77875 70.2051 9.90727 70.2051 11.2474C70.2051 12.5875 69.7819 13.7231 68.9426 14.6047ZM65.8039 3.31955C63.5398 3.31955 61.6284 4.09541 60.1401 5.62596C58.6519 7.13535 57.8972 9.02561 57.8972 11.2403C57.8972 13.455 58.6519 15.3241 60.1401 16.8547C61.6284 18.3923 63.5327 19.1682 65.8039 19.1682C68.075 19.1682 69.9582 18.3923 71.4465 16.8547C72.9488 15.31 73.7106 13.4198 73.7106 11.2403C73.7106 9.06088 72.9488 7.14946 71.4465 5.62596C69.9582 4.09541 68.0539 3.3125 65.8039 3.3125" fill="white"/>
<path d="M115.889 9.54034C115.43 9.39927 114.669 9.18062 114.26 9.07482C113.85 8.96903 113.336 8.77859 113.082 8.63752C112.609 8.41182 112.405 8.1579 112.405 7.79114C112.405 7.47374 112.405 6.5145 114.746 6.5145C116.411 6.5145 117.998 6.98001 119.472 7.88988C119.472 7.88988 119.528 7.92515 119.599 7.96747C119.698 8.038 119.768 7.94631 119.768 7.91104V4.77941C119.768 4.63129 119.669 4.58897 119.669 4.58897C118.153 3.75669 116.481 3.3335 114.711 3.3335C112.941 3.3335 111.516 3.73553 110.493 4.51844C109.442 5.3084 108.906 6.40165 108.906 7.77703C108.906 9.81541 110.155 11.0004 111.904 11.7833C112.313 11.9666 112.687 12.0795 112.912 12.15L114.02 12.5097L115.205 12.8695L115.712 13.0387C116.143 13.1869 116.27 13.2433 116.545 13.4126C116.961 13.603 117.201 13.9909 117.201 14.4705C117.201 15.6061 115.762 16.0011 114.528 16.0011C113.554 16.0011 112.546 15.8177 111.537 15.4439C110.535 15.056 109.745 14.6046 109.125 14.0756C109.125 14.0756 109.047 13.998 108.956 13.9274C108.864 13.8569 108.807 13.9063 108.807 14.005V17.3694C108.807 17.5316 108.892 17.5669 108.892 17.5669C110.451 18.6461 112.383 19.1962 114.662 19.1962C116.418 19.1962 117.843 18.7801 118.999 17.9266C120.163 17.0661 120.756 15.8812 120.756 14.393C120.756 11.8185 118.858 10.4784 115.903 9.55444" fill="white"/>
<path d="M123.57 3.6084H126.694C126.779 3.6084 126.842 3.67893 126.842 3.75652V18.7235C126.842 18.8081 126.772 18.8716 126.694 18.8716H123.577C123.492 18.8716 123.429 18.801 123.429 18.7235V3.76357C123.429 3.67893 123.499 3.61545 123.577 3.61545L123.57 3.6084Z" fill="white"/>
<path d="M133.917 15.7617C133.797 15.7617 133.705 15.6629 133.705 15.5501V3.83464C133.705 3.71474 133.607 3.62305 133.494 3.62305H130.482C130.362 3.62305 130.271 3.72179 130.271 3.83464V18.6746C130.271 18.7945 130.369 18.8862 130.482 18.8862H141.048C141.161 18.8862 141.259 18.7875 141.259 18.6746V15.9803C141.259 15.8604 141.161 15.7687 141.048 15.7687H133.924L133.917 15.7617Z" fill="white"/>
<path d="M87.7607 9.86495H83.7404C83.6487 9.86495 83.5923 9.93548 83.5923 10.0201C83.5923 10.0907 83.5923 12.1996 83.5923 12.792C83.5923 12.8908 83.6487 12.9472 83.7474 12.9472H86.3501C86.4629 12.9472 86.5053 13.0036 86.5053 13.0883V14.9785C86.5053 15.0914 86.4629 15.1267 86.4347 15.1478C85.7858 15.698 84.883 15.9589 83.6981 15.9589C82.3932 15.9589 81.2859 15.5357 80.4042 14.6964C79.5296 13.8571 79.0782 12.7215 79.0782 11.3038C79.0782 9.88611 79.5226 8.72938 80.4395 7.86889C81.3634 6.98723 82.5272 6.56404 84.0084 6.56404C85.0452 6.56404 86.0397 6.77564 87.0272 7.21294C87.3587 7.354 87.6831 7.53033 88.0146 7.72077C88.064 7.74898 88.1769 7.75603 88.2121 7.65023C88.3814 7.08598 88.9527 5.17455 88.9809 5.07581C89.0162 4.96296 88.9598 4.88537 88.9245 4.86421C87.3164 3.79917 85.5037 3.3125 83.7968 3.3125C81.4269 3.3125 79.445 4.06014 77.9074 5.53427C76.3627 7.01544 75.5728 8.94098 75.5728 11.2403C75.5728 13.5397 76.3627 15.4441 77.9074 16.9464C79.445 18.4205 81.3917 19.1682 83.691 19.1682C84.9465 19.1682 86.1526 18.9354 87.2741 18.4769C88.332 18.0396 89.2066 17.4824 89.8414 16.8053C89.912 16.7277 89.9402 16.6784 89.9402 16.5585V10.0272C89.9402 9.92843 89.8908 9.86495 89.7921 9.86495H87.7537L87.7607 9.86495Z" fill="white"/>
<path d="M53.1504 13.1373C54.8502 12.1005 55.8306 10.7463 55.8306 8.94064C55.8306 5.5833 53.0657 3.6084 50.4913 3.6084H43.7484C43.6497 3.6084 43.5933 3.66482 43.5933 3.76357V18.7235C43.5933 18.8293 43.6567 18.8786 43.7484 18.8786H47C47.0987 18.8786 47.1551 18.8363 47.1551 18.7235V7.02216C47.1551 6.92341 47.2257 6.86699 47.3103 6.86699H50.322C51.4858 6.86699 52.2617 7.92497 52.2617 8.93358C52.2617 9.9422 51.4999 10.972 50.322 10.972H48.2061C48.1144 10.972 48.0579 11.0284 48.0579 11.1271V11.635C48.0579 11.7549 48.0579 11.776 48.1285 11.8677C48.1849 11.9383 52.6214 17.6796 53.4325 18.7235C53.5101 18.8293 53.5665 18.8857 53.7146 18.8857H57.3823C57.5093 18.8857 57.5163 18.801 57.4599 18.7305C57.4105 18.667 53.1504 13.1373 53.1504 13.1373Z" fill="white"/>
<path d="M32.6609 15.7614H30.7494C30.6507 15.7614 30.5943 15.7261 30.5943 15.6133V6.89548C30.5943 6.79673 30.6366 6.74736 30.7494 6.74736H32.6609C35.8913 6.74736 37.7462 8.39076 37.7462 11.2544C37.7462 14.118 35.8983 15.7614 32.6609 15.7614ZM38.9312 5.7458C37.3865 4.3281 35.3623 3.61572 32.9077 3.61572H27.1593C27.0747 3.61572 27.0112 3.68625 27.0112 3.76384V18.7308C27.0112 18.8154 27.0818 18.8789 27.1593 18.8789H32.9077C35.3693 18.8789 37.3936 18.1665 38.9312 16.77C40.4829 15.3452 41.2658 13.4902 41.2658 11.2473C41.2658 9.00439 40.4758 7.1635 38.9312 5.7458Z" fill="white"/>
<path d="M101.155 12.5589H97.8183C97.6984 12.5589 97.642 12.4673 97.6843 12.3615L99.4124 8.29174C99.4547 8.18594 99.5323 8.18594 99.5746 8.29174L101.281 12.3615C101.331 12.4673 101.267 12.5589 101.147 12.5589H101.155ZM107.524 18.6811L103.087 8.27058L101.232 3.91874L101.183 3.80589C101.133 3.70009 100.999 3.6084 100.887 3.6084H98.1428C98.0299 3.6084 97.8959 3.70009 97.8466 3.80589L91.5057 18.6811C91.4563 18.7869 91.5198 18.8786 91.6327 18.8786H94.8137C94.9336 18.8786 95.0605 18.7869 95.1099 18.6811L96.4006 15.6483C96.45 15.5425 96.584 15.4508 96.6969 15.4508H102.276C102.396 15.4508 102.53 15.5425 102.572 15.6483L103.863 18.6811C103.912 18.7869 104.046 18.8786 104.159 18.8786H107.383C107.502 18.8786 107.559 18.7869 107.509 18.6811L107.524 18.6811Z" fill="white"/>
</svg>
