<svg width="19" height="19" viewBox="0 0 19 19" fill="none" xmlns="http://www.w3.org/2000/svg">
<path d="M4.21006 18.7211C3.99871 18.7211 3.78737 18.6506 3.59951 18.5097C3.22378 18.2279 3.08288 17.7818 3.22378 17.3356L4.8441 12.3572C4.91455 12.1459 4.8441 11.8876 4.65623 11.7701L0.429321 8.69389C0.0535941 8.41209 -0.0873028 7.96592 0.053594 7.51974C0.194492 7.07357 0.5937 6.79178 1.03987 6.79178H6.27655C6.51138 6.79178 6.72273 6.65088 6.79317 6.41605L8.41349 1.43769C8.55439 0.991511 8.9536 0.709717 9.39977 0.709717C9.84595 0.709717 10.2452 0.991511 10.3861 1.43769L11.9829 6.43953C12.0533 6.65088 12.2647 6.81526 12.4995 6.81526H17.7362C18.2058 6.81526 18.5816 7.09705 18.7225 7.54323C18.8634 7.9894 18.7225 8.43558 18.3467 8.71737L14.1198 11.7936C13.932 11.9345 13.8615 12.1693 13.932 12.3807L15.5523 17.3591C15.6932 17.8052 15.5523 18.2514 15.1766 18.5332C14.8008 18.815 14.3312 18.815 13.9554 18.5332L9.72853 15.4569C9.54067 15.3161 9.28236 15.3161 9.09449 15.4569L4.86758 18.5332C4.63275 18.6506 4.42141 18.7211 4.21006 18.7211Z" fill="#5B8FDB"/>
</svg>
