<svg width="24" height="27" viewBox="0 0 24 27" fill="none" xmlns="http://www.w3.org/2000/svg">
<path d="M23.3866 4.46183C23.1521 4.00934 22.7616 3.65716 22.2873 3.47057C19.1271 2.24492 16.0195 1.0751 12.9899 0.0769841C12.6822 -0.0256615 12.3495 -0.0256613 12.0418 0.0769843C9.01272 1.07246 5.90566 2.24018 2.74593 3.46425C2.32949 3.62987 1.97671 3.92397 1.73887 4.30382C1.75625 4.30645 1.08891 6.38959 0.975667 10.993C0.905614 15.5907 1.47867 16.9701 1.45971 16.9717C1.76941 17.9824 2.34985 19.0116 3.18205 20.0577C4.11169 21.2259 5.36789 22.4326 6.88481 23.6193C9.39721 25.5907 11.7479 26.769 11.8464 26.8106C12.2698 27.0206 12.7671 27.0206 13.1906 26.8106C13.2896 26.769 15.6429 25.5871 18.1537 23.6161C19.6712 22.4289 20.9279 21.2222 21.8581 20.0545C22.7493 18.9342 23.3518 17.835 23.6431 16.7552C23.6315 16.7552 24.0529 15.064 23.9944 11.1916C23.9201 7.32133 23.3808 4.46394 23.3866 4.46183ZM19.0971 10.8666C16.8675 13.1625 14.5758 15.5664 12.3299 17.9393C11.9608 18.3311 11.4461 18.5528 10.9078 18.5518L10.9036 18.5518C10.366 18.5457 9.85352 18.3236 9.48148 17.9356C8.27848 16.691 7.0681 15.449 5.86457 14.2307C5.09558 13.4533 5.11928 12.2292 5.91725 11.4692C6.71521 10.7091 7.96615 10.7049 8.72671 11.4855C9.44093 12.2176 10.1583 12.955 10.8788 13.6977C12.6639 11.8257 14.4552 9.93908 16.1986 8.10613C16.9397 7.32607 18.1785 7.33555 18.9849 8.10613C19.7913 8.87671 19.8476 10.0971 19.0987 10.8666H19.0971Z" fill="white"/>
</svg>
