<svg width="1206" height="234" viewBox="0 0 1206 234" fill="none" xmlns="http://www.w3.org/2000/svg">
<g clip-path="url(#clip0_2795_243)">
<path d="M1123.98 228.6H1152.14V98.102C1152.14 90.5332 1154.26 85.7067 1167.57 85.7067H1202.38L1206 63.6219C1199.93 62.4152 1195.4 61.7937 1189.95 61.7937C1182.38 61.7937 1174.52 64.2069 1163.91 73.8964C1153.6 83.586 1150.27 88.1199 1149.69 95.3962L1126.07 65.4135H1123.95L1123.98 228.6ZM975.016 113.24C982 79.0154 1001.67 66.2911 1024.96 66.2911C1046.76 66.2911 1064.93 78.6864 1066.14 113.24H975.016ZM943.497 147.171C943.497 195.326 981.05 233.463 1027.09 233.463C1057.07 233.463 1091.88 215.291 1094.91 159.567H1090.09C1084.93 210.427 1054.36 224.358 1028.91 224.358C994.981 224.358 972.274 202.566 972.274 145.014C972.274 135.324 972.896 126.549 974.395 118.688H1095.21C1095.21 87.4984 1063.43 61.7571 1025.88 61.7571C979.843 61.7571 943.497 99.9302 943.497 147.171ZM784.84 149.585C784.84 108.413 796.943 69.9475 838.737 69.9475C869.306 69.9475 888.393 89.9482 888.393 117.774V178.946C888.393 205.894 869.306 225.273 838.737 225.273C796.943 225.273 784.84 188.635 784.84 149.585ZM698.545 228.6H726.408V0H724.58L698.545 20.2932V228.6ZM514.768 170.755C514.768 213.755 542.009 233.426 574.113 233.426C601.976 233.426 622.855 219.788 631.96 202.859V203.151L657.994 227.978H660.115V61.7571H631.96V178.946C631.96 208.014 612.873 223.444 583.803 223.444C551.699 223.444 542.338 197.703 542.338 170.463V61.7571H514.768V170.755ZM347.92 147.464C347.92 86.9133 373.369 66.3276 405.145 66.3276C436.92 66.3276 462.077 86.9133 462.077 147.464C462.077 208.014 436.627 229.222 405.145 229.222C373.662 229.222 347.92 208.014 347.92 147.464ZM319.143 147.464C319.143 195.29 357.281 233.463 405.145 233.463C453.009 233.463 490.817 195.326 490.817 147.464C490.817 99.6011 452.387 61.7571 405.145 61.7571C357.902 61.7571 319.143 99.9302 319.143 147.464ZM151.088 228.6H178.951V117.774C178.951 92.0323 196.502 73.2748 225.572 73.2748C258.261 73.2748 268.573 96.8954 268.573 122.929V228.6H296.143V122.637C296.143 81.1727 268.573 61.7937 237.09 61.7937C208.935 61.7937 185.898 76.9313 178.951 98.4311V20.2932L152.917 0H151.088V228.6ZM0 218.325C12.4322 227.393 44.8292 233.463 63.8798 233.463C96.2767 233.463 126.553 217.119 126.553 181.395C126.553 158.689 114.45 142.93 71.1563 129.913C24.8279 116.567 15.4306 107.499 15.4306 91.7398C15.4306 78.1013 27.8263 67.5342 47.2059 67.5342C64.1723 67.5342 79.8954 72.0682 98.3975 93.2755L110.501 107.207H112.914L118.984 76.6388C100.518 66.3276 78.7253 61.7937 59.6382 61.7937C22.9996 61.7937 1.49918 79.3445 1.49918 107.499C1.49918 135.654 22.4146 144.429 56.3107 155.618C95.07 168.049 113.243 174.704 113.243 197.118C113.243 211.342 101.14 226.479 76.6045 226.479C62.3806 226.479 42.0868 222.859 22.0855 202.274L2.70584 182.602H0.87757L0 218.325ZM829.34 233.463C858.409 233.463 881.116 218.618 888.393 198.654V228.637H915.963V20.2932L889.929 0H888.43V98.3945C881.153 76.8947 858.446 61.7571 829.706 61.7571C791.568 61.7571 757.635 89.6191 757.635 148.67C757.635 207.722 791.202 233.463 829.34 233.463Z" fill="#010101"/>
</g>
<defs>
<clipPath id="clip0_2795_243">
<rect width="1206" height="233.463" fill="white"/>
</clipPath>
</defs>
</svg>
